<?xml version="1.0" encoding="UTF-8"?>
<svg width="240px" height="249px" viewBox="0 0 240 249" version="1.1" xmlns="http://www.w3.org/2000/svg" xmlns:xlink="http://www.w3.org/1999/xlink">
    <!-- Generator: Sketch 49 (51002) - http://www.bohemiancoding.com/sketch -->
    <title>Logo_CircleOnly</title>
    <desc>Created with Sketch.</desc>
    <defs></defs>
    <g id="Logo" stroke="none" stroke-width="1" fill="none" fill-rule="evenodd">
        <g id="Logo-Final" transform="translate(-100.000000, -334.000000)">
            <g id="Logo_CircleOnly" transform="translate(70.000000, 308.000000)">
                <g id="Group" transform="translate(30.000000, 26.000000)">
                    <path d="M122.158967,151.594444 C118.779422,154.231495 115.090826,156.291659 111.093071,157.775 C107.095315,159.258341 102.788519,160 98.1725543,160 C92.0728862,160 86.4884764,158.722698 81.4191576,156.168056 C76.3498388,153.613413 72.0018297,150.275947 68.375,146.155556 C64.7481703,142.035165 61.9456621,137.296786 59.9673913,131.940278 C57.9891205,126.58377 57,121.103732 57,115.5 C57,109.649045 58.0509406,104.045397 60.1528533,98.6888889 C62.2547659,93.3323806 65.1603075,88.5940021 68.8695652,84.4736111 C72.5788229,80.3532201 76.9474386,77.0775585 81.9755435,74.6465278 C87.0036483,72.2154971 92.4438113,71 98.2961957,71 C104.395864,71 109.980274,72.2979037 115.049592,74.89375 C120.118911,77.4895963 124.446314,80.8888679 128.031929,85.0916667 C131.617545,89.2944655 134.399447,94.0534456 136.377717,99.36875 C138.355988,104.684054 139.345109,110.102287 139.345109,115.623611 C139.345109,121.639382 138.252955,127.366639 136.068614,132.805556 C133.884273,138.244472 130.855092,143.024053 126.980978,147.144444 L137.366848,159.381944 L128.835598,159.381944 L122.158967,151.594444 Z M98.1725543,152.2125 C101.881812,152.2125 105.302521,151.615052 108.434783,150.420139 C111.567045,149.225226 114.45198,147.597695 117.089674,145.5375 L106.085598,132.434722 L114.616848,132.434722 L121.664402,140.840278 C124.54938,137.379149 126.774902,133.444235 128.341033,129.035417 C129.907164,124.626598 130.690217,120.114838 130.690217,115.5 C130.690217,110.720346 129.886557,106.126179 128.279212,101.717361 C126.671867,97.3085428 124.425739,93.4148317 121.540761,90.0361111 C118.655783,86.6573905 115.235074,83.9379733 111.278533,81.8777778 C107.321991,79.8175823 102.953375,78.7875 98.1725543,78.7875 C93.2268774,78.7875 88.7346216,79.8381839 84.6956522,81.9395833 C80.6566827,84.0409827 77.2359742,86.8222049 74.4334239,90.2833333 C71.6308737,93.7444618 69.4671725,97.6793761 67.9422554,102.088194 C66.4173384,106.497013 65.6548913,110.96757 65.6548913,115.5 C65.6548913,120.279654 66.4379451,124.873821 68.0040761,129.282639 C69.5702071,133.691457 71.7957283,137.60577 74.6807065,141.025694 C77.5656847,144.445619 80.9863933,147.165036 84.9429348,149.184028 C88.8994763,151.203019 93.3093054,152.2125 98.1725543,152.2125 Z M155.418478,159.381944 L155.418478,71.6180556 L191.769022,71.6180556 C195.560707,71.6180556 199.043236,72.4215197 202.216712,74.0284722 C205.390188,75.6354247 208.130876,77.7367926 210.438859,80.3326389 C212.746841,82.9284852 214.560229,85.8745206 215.879076,89.1708333 C217.197923,92.4671461 217.857337,95.8046127 217.857337,99.1833333 C217.857337,102.809277 217.239137,106.290956 216.002717,109.628472 C214.766298,112.965989 213.035337,115.912024 210.809783,118.466667 C208.584228,121.021309 205.925967,123.081474 202.834918,124.647222 C199.74387,126.212971 196.302555,126.995833 192.51087,126.995833 L164.07337,126.995833 L164.07337,159.381944 L155.418478,159.381944 Z M164.07337,119.331944 L192.139946,119.331944 C194.695212,119.331944 197.023767,118.7757 199.125679,117.663194 C201.227592,116.550689 203.020373,115.06737 204.504076,113.213194 C205.987779,111.359019 207.141753,109.216447 207.966033,106.785417 C208.790312,104.354386 209.202446,101.820384 209.202446,99.1833333 C209.202446,96.4638753 208.728492,93.8886696 207.780571,91.4576389 C206.832649,89.0266082 205.555035,86.9046387 203.94769,85.0916667 C202.340345,83.2786946 200.444531,81.8571811 198.26019,80.8270833 C196.07585,79.7969856 193.788508,79.2819444 191.398098,79.2819444 L164.07337,79.2819444 L164.07337,119.331944 Z M230.592391,159.381944 L230.592391,94.9805556 L239,94.9805556 L239,159.381944 L230.592391,159.381944 Z" id="QPi" fill="#374A8C"></path>
                    <path d="M235.394296,66.7254902 L229.549822,66.7254902 C209.94683,35.4503975 175.115682,14.6470588 135.413597,14.6470588 C74.1424311,14.6470588 24.4723369,64.1942132 24.4723369,125.313725 C24.4723369,186.433238 74.1424311,235.980392 135.413597,235.980392 C179.761258,235.980392 218.031387,210.023789 235.789028,172.50981 L240,172.509804 C221.160923,217.434729 176.680299,249 124.808918,249 C55.878856,249 0,193.259451 0,124.5 C0,55.7405486 55.878856,0 124.808918,0 C172.834457,0 214.524541,27.0581683 235.394288,66.7254744 Z" id="Combined-Shape" fill="#47CDA4"></path>
                </g>
            </g>
        </g>
    </g>
</svg>